<svg xmlns="http://www.w3.org/2000/svg" viewBox="0 0 550 499.33"><defs><style>.cls-1{fill:#e85b23;}.cls-2{fill:#606060;}</style></defs><title>download</title><g id="Capa_2" data-name="Capa 2"><g id="Object"><polygon points="550 499.33 0 499.33 0 303.31 82.83 303.31 82.83 416.5 467.17 416.5 467.17 303.31 550 303.31 550 499.33"/><polygon class="cls-1" points="367.57 205.75 367.57 0 182.43 0 182.43 205.75 102.98 205.75 275 377.77 447.02 205.75 367.57 205.75"/><path class="cls-1" d="M447,205.75c-51,32.36-142.21,85.87-229.29,114.69L275,377.77l172-172Z"/><path class="cls-1" d="M189.66,88.08V7h62.48S198,16.92,189.66,88.08Z"/><path class="cls-2" d="M115.28,499.33S450.67,487.45,550,377.77V499.33Z"/></g></g></svg>