<svg xmlns="http://www.w3.org/2000/svg" xmlns:xlink="http://www.w3.org/1999/xlink" viewBox="0 0 103.65 103.65"><defs><style>.cls-1{isolation:isolate;}.cls-2{fill:#e85b23;}.cls-3{fill:#ceefff;}.cls-3,.cls-4,.cls-5{fill-rule:evenodd;}.cls-4{fill:#25b2c4;}.cls-5{fill:#a69281;}.cls-15,.cls-5{mix-blend-mode:color-burn;}.cls-6{fill:#5b424c;}.cls-7{fill:#806167;}.cls-8{fill:#9a8692;}.cls-9{mix-blend-mode:exclusion;fill:url(#linear-gradient);}.cls-10{fill:url(#linear-gradient-2);}.cls-11{fill:url(#linear-gradient-3);}.cls-12{fill:url(#linear-gradient-4);}.cls-13{mix-blend-mode:multiply;fill:url(#linear-gradient-5);}.cls-14{fill:#fc0;}.cls-15{fill:#ffb136;}.cls-16{mix-blend-mode:screen;fill:url(#linear-gradient-6);}</style><linearGradient id="linear-gradient" x1="18.61" y1="53.92" x2="23.68" y2="53.92" gradientUnits="userSpaceOnUse"><stop offset="0"/><stop offset="0.21" stop-color="#050405"/><stop offset="0.46" stop-color="#130f14"/><stop offset="0.74" stop-color="#2b202c"/><stop offset="1" stop-color="#47364a"/></linearGradient><linearGradient id="linear-gradient-2" x1="81.48" y1="53.5" x2="86.71" y2="53.5" xlink:href="#linear-gradient"/><linearGradient id="linear-gradient-3" x1="88.82" y1="52.86" x2="89.39" y2="52.86" gradientUnits="userSpaceOnUse"><stop offset="0" stop-color="#9a8692"/><stop offset="0.19" stop-color="#9d8a95"/><stop offset="0.37" stop-color="#a795a0"/><stop offset="0.55" stop-color="#b7a8b1"/><stop offset="0.72" stop-color="#cdc3c9"/><stop offset="0.89" stop-color="#eae6e8"/><stop offset="1" stop-color="#fff"/></linearGradient><linearGradient id="linear-gradient-4" x1="11.62" y1="53.92" x2="12.35" y2="53.92" gradientUnits="userSpaceOnUse"><stop offset="0" stop-color="#e0c4c7"/><stop offset="0.1" stop-color="#c5a8ac"/><stop offset="0.22" stop-color="#ac8e93"/><stop offset="0.35" stop-color="#987a7f"/><stop offset="0.5" stop-color="#8a6c71"/><stop offset="0.69" stop-color="#826369"/><stop offset="1" stop-color="#806167"/></linearGradient><linearGradient id="linear-gradient-5" x1="59.26" y1="98.4" x2="91.26" y2="64.72" gradientUnits="userSpaceOnUse"><stop offset="0" stop-color="#fff"/><stop offset="0.27" stop-color="#fdfdfd"/><stop offset="0.43" stop-color="#f5f4f6"/><stop offset="0.55" stop-color="#e7e6e9"/><stop offset="0.66" stop-color="#d3d3d7"/><stop offset="0.76" stop-color="#bab9c0"/><stop offset="0.86" stop-color="#9b99a4"/><stop offset="0.94" stop-color="#777483"/><stop offset="1" stop-color="#595668"/></linearGradient><linearGradient id="linear-gradient-6" x1="79.09" y1="80.54" x2="89.99" y2="66.63" gradientUnits="userSpaceOnUse"><stop offset="0"/><stop offset="0.23" stop-color="#373737"/><stop offset="0.76" stop-color="silver"/><stop offset="1" stop-color="#fff"/></linearGradient></defs><title>icon-nuevo2</title><g class="cls-1"><g id="Capa_2" data-name="Capa 2"><g id="Background"><path class="cls-2" d="M103.65,51.83A51.83,51.83,0,1,1,51.83,0,51.82,51.82,0,0,1,103.65,51.83Z"/><path class="cls-3" d="M84.12,52.48A33.09,33.09,0,1,1,51,19.39,33.08,33.08,0,0,1,84.12,52.48Z"/><path class="cls-4" d="M51.82,41.5a3.14,3.14,0,0,0-1.58,0,2,2,0,0,0-.82.7c-2.51,3.28.13,7.51,1.81,10.69a3.55,3.55,0,0,0,1.19,1.41c1.41.7,1.47-.36,3.12.84,4,2.88,5.28,13.42,7,13,3.38-.72,1.39-9.91,3.54-12.11,4.07-4.15-.15-4.88,2.11-8a.8.8,0,0,0,.22-.73,1,1,0,0,0-.46-.64,27,27,0,0,0-4.2-2.54c-.48-.25-1.12-.53-.73-.89a2.17,2.17,0,0,1,1.38-.48c5-.08,6.23,6.93,9.77,9.31-.3-2.27.15-6.06,3.4-5.54-1.1,1.79-.71,3.91,2.48,3.6a2,2,0,0,0,.89-.28c.2-.16.09-.66,0-1.05-1.72-14.68-11.2-22.93-22.86-19.56-2,.59-3.8,2.84-6.57,1.92-.16-.05-.5-.19-.6,0a16.32,16.32,0,0,0-.89,1.9c-1.24,2.43-2.87,5.12-.78,7.46,2.27-4.3,5.61-1,8.84,0C56.21,42.66,54.54,41.81,51.82,41.5Z"/><path class="cls-4" d="M46.16,57.22c-8.45-1.32-7.35-7.9-13.66-4.57-1.68-2.92-2.25-5.36-5.07-5.19-.77-3,3.26-1.37,6-2.59,1.51-.69,2.43-8.35,10.81-8.68,3.61-.15-2.47-2.81-3.79-3.82.27-2,6.67,4.34,5.49-3.14-.26-1.69-6.23-4.58-6.21-2.86.06,3.57-.44,2.65-2.43.91-.78-.67-.19,2.75-1.22,2.89-7-1.63-14,10.63-14.14,12.1-.14,2.18,2.3,7.43,3.49,7.33,2.71-.24,7.71,4.95,5.74,7.29C29.79,58.5,37.69,75.24,44,75.12,39.64,69.29,48.43,57.57,46.16,57.22Z"/><path class="cls-4" d="M76.32,60.39c-6.08.28-6.76,9-6.73,11.28,1.25-1.47,2.55-.65,3.89-.19a4.91,4.91,0,0,0,1.3.12,2.76,2.76,0,0,0,1-.32c2.59-1.8,2.54-4.69,2-9.61a1.35,1.35,0,0,0-.48-.94A1.07,1.07,0,0,0,76.32,60.39Z"/><path class="cls-5" d="M51,19.39h0a33.09,33.09,0,0,0,0,66.18h0Z"/><path class="cls-6" d="M50.61,83.41H24.55a6.25,6.25,0,0,1-6.25-6.25V56.77h1.14V77.16a5.11,5.11,0,0,0,5.11,5.11H50.61Z"/><path class="cls-6" d="M23.24,52.86A103.9,103.9,0,0,1,23,38.19c.45-7.57,1.91-10.68,3.9-13.91C31.61,16.55,44,14.89,50.5,14.84V10.59s-17.76-1.42-27,10.21c-3.59,4.5-5,11.86-5,16.44,0,9.76.11,15.4.11,15.4Z"/><path class="cls-7" d="M77.76,52.86A103.9,103.9,0,0,0,78,38.19c-.45-7.57-1.91-10.68-3.9-13.91C69.39,16.55,57,14.89,50.5,14.84V10.59s17.76-1.42,27,10.21c3.59,4.5,5,11.86,5,16.44,0,9.76-.11,15.4-.11,15.4Z"/><path class="cls-7" d="M14.35,61.48a1.56,1.56,0,0,1-1.48,1.64h0a1.56,1.56,0,0,1-1.48-1.64V46.36a1.56,1.56,0,0,1,1.48-1.64h0a1.56,1.56,0,0,1,1.48,1.64Z"/><path class="cls-8" d="M89.84,60.42c-1,.91-1.65,1.64-2.5,1.64h0a1.59,1.59,0,0,1-1.53-1.64V45.29a1.59,1.59,0,0,1,1.53-1.64h0c.85,0,1.53.74,2.5,1.64Z"/><path d="M25.48,63.64a6.23,6.23,0,0,1-6.3,6.16h0a6.23,6.23,0,0,1-6.31-6.16V44.2A6.24,6.24,0,0,1,19.18,38h0a6.23,6.23,0,0,1,6.3,6.17Z"/><path d="M75.28,63.64A6.35,6.35,0,0,0,81.8,69.8h0a6.35,6.35,0,0,0,6.51-6.16V44.2A6.35,6.35,0,0,0,81.8,38h0a6.35,6.35,0,0,0-6.52,6.17Z"/><path class="cls-9" d="M23.68,64.35a2.69,2.69,0,0,1-2.54,2.81h0a2.69,2.69,0,0,1-2.53-2.81V43.49a2.69,2.69,0,0,1,2.53-2.81h0a2.69,2.69,0,0,1,2.54,2.81Z"/><path class="cls-10" d="M86.71,63.93a2.72,2.72,0,0,1-2.62,2.81h0a2.71,2.71,0,0,1-2.61-2.81V43.07a2.71,2.71,0,0,1,2.61-2.81h0a2.72,2.72,0,0,1,2.62,2.81Z"/><path d="M56,82.84a2.72,2.72,0,0,1-2.71,2.73H48a2.72,2.72,0,0,1-2.71-2.73h0A2.72,2.72,0,0,1,48,80.11h5.25A2.72,2.72,0,0,1,56,82.84Z"/><path class="cls-11" d="M89.39,60.07c0,.07-.13.13-.28.13h0c-.16,0-.29-.06-.29-.13V45.65c0-.08.13-.14.29-.14h0c.15,0,.28.06.28.14Z"/><path class="cls-12" d="M12.35,61.73c0,.08-.17.15-.37.15h0c-.2,0-.36-.07-.36-.15V46.1c0-.07.16-.14.36-.14h0c.2,0,.37.07.37.14Z"/><path class="cls-13" d="M78.11,61.57,87.34,91s-10.21,6-13.52,7.75c-5.07,2.74-14,4.28-14,4.28L55.45,82.56l7-9.65,8.42-1.23Z"/><polygon class="cls-14" points="77.82 61.71 82.57 71.36 93.22 72.91 85.52 80.42 87.34 91.02 77.82 86.02 68.29 91.02 70.11 80.42 62.41 72.91 73.05 71.36 77.82 61.71"/><polygon class="cls-15" points="77.81 86.02 77.81 61.73 73.05 71.36 62.41 72.91 70.11 80.42 68.29 91.02 77.81 86.02"/><polygon class="cls-16" points="82.35 71.59 77.82 62.39 77.81 62.4 81.54 73.07 91.48 73.73 84.2 79.9 85.27 88.26 77.87 85.6 86.9 90.35 85.16 80.23 92.51 73.07 82.35 71.59"/></g></g></g></svg>