<svg xmlns="http://www.w3.org/2000/svg" xmlns:xlink="http://www.w3.org/1999/xlink" viewBox="0 0 103.65 109.2"><defs><style>.cls-1{isolation:isolate;}.cls-2{fill:#e85b23;}.cls-10,.cls-15,.cls-3,.cls-6{mix-blend-mode:soft-light;}.cls-3{fill:url(#linear-gradient);}.cls-4{fill:#ffa47c;}.cls-5{fill:#596273;}.cls-6{fill:url(#linear-gradient-2);}.cls-12,.cls-13,.cls-16,.cls-7{mix-blend-mode:multiply;}.cls-7{fill:url(#linear-gradient-3);}.cls-8{fill:#ffbd95;}.cls-11,.cls-9{fill:#5d5d5d;}.cls-10,.cls-11,.cls-12,.cls-13,.cls-14,.cls-15,.cls-16{fill-rule:evenodd;}.cls-10{fill:url(#linear-gradient-4);}.cls-12{fill:url(#linear-gradient-5);}.cls-13{fill:url(#radial-gradient);}.cls-14{fill:#c9dad8;}.cls-15{fill:url(#linear-gradient-6);}.cls-16{fill:url(#linear-gradient-7);}.cls-17{fill:#f4f8f7;}</style><linearGradient id="linear-gradient" x1="29.44" y1="77.83" x2="90.65" y2="16.63" gradientUnits="userSpaceOnUse"><stop offset="0.22" stop-color="#c99a9c"/><stop offset="0.28" stop-color="#d3adae"/><stop offset="0.4" stop-color="#e3cacb"/><stop offset="0.53" stop-color="#efe2e2"/><stop offset="0.66" stop-color="#f8f2f2"/><stop offset="0.81" stop-color="#fdfcfc"/><stop offset="1" stop-color="#fff"/></linearGradient><linearGradient id="linear-gradient-2" x1="27.44" y1="50.53" x2="68.21" y2="50.53" gradientUnits="userSpaceOnUse"><stop offset="0" stop-color="#c2bdc7"/><stop offset="0.25" stop-color="#dcdadf"/><stop offset="0.51" stop-color="#f0eef1"/><stop offset="0.76" stop-color="#fbfbfb"/><stop offset="1" stop-color="#fff"/></linearGradient><linearGradient id="linear-gradient-3" x1="37.95" y1="71.37" x2="43.68" y2="63.14" gradientUnits="userSpaceOnUse"><stop offset="0.33" stop-color="#fff"/><stop offset="0.46" stop-color="#fdfbfb"/><stop offset="0.59" stop-color="#f6eeee"/><stop offset="0.73" stop-color="#ebd9da"/><stop offset="0.87" stop-color="#dbbcbd"/><stop offset="1" stop-color="#c99a9c"/></linearGradient><linearGradient id="linear-gradient-4" x1="42.18" y1="18.29" x2="84.31" y2="18.29" gradientUnits="userSpaceOnUse"><stop offset="0"/><stop offset="0.11" stop-color="#050505"/><stop offset="0.23" stop-color="#121212"/><stop offset="0.36" stop-color="#292929"/><stop offset="0.5" stop-color="#484848"/><stop offset="0.64" stop-color="#707070"/><stop offset="0.78" stop-color="#a2a2a2"/><stop offset="0.92" stop-color="#dbdbdb"/><stop offset="1" stop-color="#fff"/></linearGradient><linearGradient id="linear-gradient-5" x1="536.99" y1="34.65" x2="546.12" y2="34.65" gradientTransform="matrix(-1, 0, 0, 1, 615.89, 0)" xlink:href="#linear-gradient-2"/><radialGradient id="radial-gradient" cx="59.77" cy="14.88" r="37.57" gradientUnits="userSpaceOnUse"><stop offset="0" stop-color="#c99a9c"/><stop offset="0.28" stop-color="#e3cacb"/><stop offset="0.54" stop-color="#f7f0f1"/><stop offset="0.67" stop-color="#fff"/></radialGradient><linearGradient id="linear-gradient-6" x1="39.78" y1="20.27" x2="74.93" y2="-2.96" xlink:href="#linear-gradient-4"/><linearGradient id="linear-gradient-7" x1="33.58" y1="29.27" x2="42.71" y2="29.27" gradientUnits="userSpaceOnUse"><stop offset="0" stop-color="#c2bdc7"/><stop offset="0.02" stop-color="#c8c4cd"/><stop offset="0.11" stop-color="#dcdadf"/><stop offset="0.21" stop-color="#ecebee"/><stop offset="0.34" stop-color="#f7f6f8"/><stop offset="0.51" stop-color="#fdfdfd"/><stop offset="1" stop-color="#fff"/></linearGradient></defs><title>Recurso 4</title><g class="cls-1"><g id="Capa_2" data-name="Capa 2"><g id="Background"><path class="cls-2" d="M103.65,57.37A51.83,51.83,0,1,1,51.83,5.54,51.83,51.83,0,0,1,103.65,57.37Z"/><path class="cls-3" d="M51.08,12.91A43.28,43.28,0,1,0,94.36,56.19,43.28,43.28,0,0,0,51.08,12.91ZM42.59,86.19C35,86.34,25.42,63.94,27,61.79c2.38-3.13-3.66-10.08-6.94-9.76-1.44.14-4.38-6.89-4.22-9.8C16,40.26,24.54,23.85,33,26c1.26-.19.54-4.78,1.49-3.87,2.4,2.32,3,3.55,2.94-1.23,0-2.29,7.18,1.57,7.51,3.84,1.42,10-6.32,1.46-6.65,4.19,1.59,1.36,9,4.92,4.58,5.11C32.71,34.53,31.6,44.78,29.77,45.7c-3.26,1.63-8.14-.54-7.2,3.46,3.4-.23,4.09,3.05,6.13,7,7.63-4.46,6.3,4.35,16.51,6.12C48,62.7,37.33,78.38,42.59,86.19ZM81,81.05a3.08,3.08,0,0,1-1.19.43,5.32,5.32,0,0,1-1.56-.16c-1.62-.63-3.2-1.71-4.71.26,0-3.11.78-14.73,8.13-15.11a1.21,1.21,0,0,1,1.13.46,1.81,1.81,0,0,1,.58,1.26C84.07,74.76,84.14,78.64,81,81.05Zm5.2-28.21c-3.85.41-4.33-2.43-3-4.83-3.92-.69-4.46,4.38-4.1,7.42C74.81,52.25,73.31,42.86,67.27,43a2.58,2.58,0,0,0-1.66.64c-.47.5.3.86.88,1.2a32.15,32.15,0,0,1,5.08,3.4,1.39,1.39,0,0,1,.55.87,1.11,1.11,0,0,1-.27,1c-2.72,4.16,2.37,5.13-2.55,10.7C66.71,63.67,69.11,76,65,76.94c-2.09.5-3.66-13.6-8.47-17.46-2-1.6-2.07-.2-3.78-1.13a4.57,4.57,0,0,1-1.44-1.89c-2-4.25-5.23-9.92-2.19-14.3a2.39,2.39,0,0,1,1-.94,3.42,3.42,0,0,1,1.9,0c3.29.42,5.32,1.55,7.64-1.28-3.91-1.38-7.94-5.74-10.69,0-2.53-3.12-.56-6.73.94-10A23.38,23.38,0,0,1,51,27.4c.13-.21.53,0,.73,0,3.35,1.23,5.49-1.78,7.95-2.57,14.09-4.51,25.55,6.53,27.63,26.18.06.53.2,1.19,0,1.4A2.25,2.25,0,0,1,86.2,52.84Z"/><path class="cls-4" d="M49,79.32s.51-3.37,3.5-9.55S56,55.66,54.9,54.56,41.6,50.1,39.46,51.21,33,61.8,33.38,65.59,45.16,79.61,49,79.32Z"/><path class="cls-5" d="M34,41.87,22,33.81a19.6,19.6,0,0,0,5.21,18.77,50.64,50.64,0,0,0,12.76,9.83,49.75,49.75,0,0,0,14.85,5.75A20.2,20.2,0,0,0,73.8,63L60.57,56.91S59,60.83,55.66,60.13a40,40,0,0,1-11.53-4.55,42.4,42.4,0,0,1-9.59-7.41C31.19,44.69,34,41.87,34,41.87Z"/><path class="cls-6" d="M68.21,60.41l-7.64-3.5S59,60.83,55.66,60.13a40,40,0,0,1-11.53-4.55,42.4,42.4,0,0,1-9.59-7.41c-3.35-3.48-.51-6.3-.51-6.3l-6.58-4.39A18.35,18.35,0,0,0,31.51,50a35,35,0,0,0,10.74,8.9,34.43,34.43,0,0,0,13,4.51A18.68,18.68,0,0,0,68.21,60.41Z"/><path class="cls-5" d="M62.08,53.39a2.47,2.47,0,0,0-3,1.6h0a2.19,2.19,0,0,0,1,3L73.8,63a2.5,2.5,0,0,0,3-1.6h0a2.21,2.21,0,0,0-1-3Z"/><path class="cls-5" d="M36.34,38.59a2.48,2.48,0,0,1,.21,3.35h0a2.22,2.22,0,0,1-3.12.77L22,33.81a2.47,2.47,0,0,1-.21-3.35h0a2.23,2.23,0,0,1,3.12-.76Z"/><path class="cls-7" d="M53.36,67.83,34.59,58.18A6.71,6.71,0,0,0,31.5,63c-.3,3.21,2,12,10.23,12.52S53.36,67.83,53.36,67.83Z"/><path class="cls-4" d="M33.68,105.16s.54-28.92-.48-30.61-4.77-7.49-4.41-10.63c.43-3.75,3.06-10.21,3.33-12.14.22-1.63-.85-6.77,1.83-4.43,4.37,3.81.3,8.67,1,11.33,1.65,5.81,6.29,6.68,9.59,8.72,3.84,2.37,5.6,8.09,4.65,10.55-1,2.63.92,28.05.92,28.05Z"/><path class="cls-8" d="M39.2,60.62c-.24,1-1.46,1.37-2.72.92h0A2.43,2.43,0,0,1,34.63,59l2.48-9.9c.24-1,1.46-1.39,2.73-.94h0a2.44,2.44,0,0,1,1.84,2.57Z"/><path class="cls-8" d="M43.36,63.9a2.06,2.06,0,0,1-2.82,1.31h0a2.59,2.59,0,0,1-1.75-2.94l3-12.09a2.06,2.06,0,0,1,2.82-1.31h0a2.61,2.61,0,0,1,1.75,2.94Z"/><path class="cls-8" d="M47.93,65.52a2.06,2.06,0,0,1-2.82,1.32h0a2.6,2.6,0,0,1-1.75-2.94l3-12.09a2.06,2.06,0,0,1,2.82-1.32h0A2.61,2.61,0,0,1,51,53.44Z"/><path class="cls-8" d="M52.51,64.29a1.71,1.71,0,0,1-2.37.94h0a2.15,2.15,0,0,1-1.55-2.34l2.33-9.27a1.71,1.71,0,0,1,2.37-.94h0A2.15,2.15,0,0,1,54.83,55Z"/><path class="cls-9" d="M44.83,5.38H78.91a5.4,5.4,0,0,1,5.4,5.4V26.17a5.4,5.4,0,0,1-5.4,5.4H44.83a5.4,5.4,0,0,1-5.4-5.4V10.78a5.41,5.41,0,0,1,5.41-5.41Z"/><path class="cls-10" d="M78.91,5.38H44.83a5.39,5.39,0,0,0-2.65.69,5.49,5.49,0,0,1,2-.36H78.21a5.4,5.4,0,0,1,5.4,5.4V26.5a5.37,5.37,0,0,1-2.76,4.7,5.39,5.39,0,0,0,3.46-5V10.78A5.4,5.4,0,0,0,78.91,5.38Z"/><polygon class="cls-11" points="78.91 31.57 78.91 37.73 69.78 31.57 78.91 31.57"/><path class="cls-12" d="M69.78,31.57l9.13,6.16s-2.37-3.8-2.23-4.52,2.23-1.64,2.23-1.64Z"/><path class="cls-13" d="M39.42,10.78V26.17A5.37,5.37,0,0,0,41,30H71.7a5.4,5.4,0,0,0,5.4-5.4V9.2a5.39,5.39,0,0,0-1.59-3.82H44.83A5.41,5.41,0,0,0,39.42,10.78Z"/><path class="cls-14" d="M67.66,0H33.58a5.4,5.4,0,0,0-5.4,5.4V20.79a5.4,5.4,0,0,0,5.4,5.4v6.16l9.13-6.16H67.66a5.4,5.4,0,0,0,5.4-5.4V5.4A5.4,5.4,0,0,0,67.66,0Z"/><path class="cls-15" d="M67.66,0H33.58a5.26,5.26,0,0,0-2.64.7A5.23,5.23,0,0,1,32.88.33H67a5.41,5.41,0,0,1,5.41,5.4V21.12a5.42,5.42,0,0,1-2.76,4.71,5.41,5.41,0,0,0,3.45-5V5.4A5.4,5.4,0,0,0,67.66,0Z"/><path class="cls-16" d="M42.71,26.19l-9.13,6.16s2.36-3.8,2.22-4.52-2.22-1.64-2.22-1.64Z"/><path class="cls-17" d="M44.87,13.45a2.16,2.16,0,1,1-2.16-2.16A2.16,2.16,0,0,1,44.87,13.45Z"/><path class="cls-17" d="M53,13.45a2.16,2.16,0,1,1-2.16-2.16A2.16,2.16,0,0,1,53,13.45Z"/><path class="cls-17" d="M61.12,13.45A2.16,2.16,0,1,1,59,11.29,2.16,2.16,0,0,1,61.12,13.45Z"/></g></g></g></svg>