<svg xmlns="http://www.w3.org/2000/svg" xmlns:xlink="http://www.w3.org/1999/xlink" viewBox="0 0 105.61 111.3"><defs><style>.cls-1{fill:none;}.cls-2{isolation:isolate;}.cls-3{fill:#fa8;}.cls-4{fill:#e85b23;}.cls-5{fill:#ceefff;}.cls-5,.cls-6,.cls-7{fill-rule:evenodd;}.cls-6{fill:#25b2c4;}.cls-7{fill:#a69281;}.cls-17,.cls-7{mix-blend-mode:color-burn;}.cls-8{fill:#a9abc2;}.cls-9{fill:#3d4f59;}.cls-10{fill:#f1eff4;}.cls-11{opacity:0.2;}.cls-12{fill:#fff;opacity:0.5;}.cls-13{fill:#596273;}.cls-14{fill:#7e908d;}.cls-15{clip-path:url(#clip-path);}.cls-16{opacity:0.3;}.cls-17{fill:#b8c4a6;}</style><clipPath id="clip-path"><path class="cls-1" d="M85.46,87.86c.11-.21.25-.46.42-.72L20.43,21.7c-1,1.56-2.53,3.5-4.36,3.3-2.34-.24-8.27-5.87-9-5.11s3.53,8.92,6.37,10.61c4.17,2.46,6.84,1.32,9.14,2.07C23.88,33,27,36.1,27,36.1L71,80.18S75,83.9,75.55,85.51C76.64,88.43,75.34,93,80,96.79c3.44,2.81,12.61,2.82,12.83,1.64.11-.62-6.19-4.4-7.16-5.37S84.46,89.66,85.46,87.86Z"/></clipPath></defs><title>icon-nuevo1</title><g class="cls-2"><g id="Capa_2" data-name="Capa 2"><g id="Background"><path class="cls-3" d="M105.61,55.69A51.83,51.83,0,1,1,53.79,3.86,51.83,51.83,0,0,1,105.61,55.69Z"/><path class="cls-4" d="M68.81,94a1.35,1.35,0,0,0-.48-1.17c-.6-.51-1.56-.55-2.8-.09A38.63,38.63,0,0,1,28.07,85.5a38.2,38.2,0,0,1-4.45-53.76c13.61-15.89,37.74-17.61,53.8-3.86A38.38,38.38,0,0,1,90.87,56.65l-5.71-4.89a1.57,1.57,0,1,0-2,2.39l8.57,7.33a1.57,1.57,0,0,0,2.12-.07l7.47-8.72a1.57,1.57,0,1,0-2.38-2l-4.8,5.6A41.6,41.6,0,0,0,79.47,25.48C62.06,10.56,35.89,12.42,21.15,29.63S8.61,73,26,87.89a41.8,41.8,0,0,0,41.61,7.52l.27-.12A1.74,1.74,0,0,0,68.81,94Z"/><path class="cls-5" d="M69.33,96.16A15.15,15.15,0,1,1,54.18,81,15.14,15.14,0,0,1,69.33,96.16Z"/><path class="cls-6" d="M54.54,91.14a1.36,1.36,0,0,0-.72,0,.78.78,0,0,0-.37.32c-1.15,1.5.06,3.44.82,4.89a1.59,1.59,0,0,0,.55.64c.65.33.67-.16,1.43.39,1.82,1.32,2.41,6.14,3.21,6,1.54-.33.63-4.53,1.61-5.54,1.87-1.9-.07-2.23,1-3.66a.35.35,0,0,0,.1-.33.45.45,0,0,0-.21-.29A12.46,12.46,0,0,0,60,92.37c-.22-.11-.51-.24-.34-.41a1,1,0,0,1,.64-.21c2.28,0,2.85,3.17,4.47,4.26-.14-1,.06-2.77,1.55-2.54-.5.82-.32,1.79,1.14,1.65a.86.86,0,0,0,.4-.13c.1-.07,0-.3,0-.48-.79-6.72-5.12-10.49-10.46-9-.93.27-1.74,1.3-3,.88-.08,0-.23-.09-.28,0s-.29.65-.41.87c-.56,1.11-1.31,2.34-.35,3.41,1-2,2.56-.47,4,0C56.55,91.67,55.79,91.28,54.54,91.14Z"/><path class="cls-6" d="M52,98.33c-3.86-.6-3.36-3.61-6.24-2.09-.78-1.33-1-2.45-2.33-2.38-.35-1.36,1.5-.62,2.73-1.18.69-.31,1.11-3.82,5-4,1.65-.07-1.13-1.29-1.74-1.75.13-.93,3.06,2,2.52-1.43-.13-.78-2.86-2.1-2.84-1.32,0,1.64-.21,1.22-1.12.42-.36-.31-.08,1.26-.56,1.32-3.19-.74-6.43,4.87-6.47,5.54-.06,1,1,3.4,1.6,3.35,1.24-.1,3.53,2.27,2.63,3.34-.62.74,3,8.39,5.88,8.34C49,103.85,53,98.49,52,98.33Z"/><path class="cls-6" d="M65.75,99.78c-2.78.13-3.09,4.1-3.08,5.16.58-.67,1.17-.3,1.79-.08a2.07,2.07,0,0,0,.59,0,1.09,1.09,0,0,0,.45-.15c1.19-.82,1.16-2.14.9-4.39a.6.6,0,0,0-.22-.43A.52.52,0,0,0,65.75,99.78Z"/><path class="cls-7" d="M54.18,81h0a15.14,15.14,0,1,0,0,30.28h0Z"/><path class="cls-8" d="M68.55,13.65A13.65,13.65,0,1,1,54.9,0,13.65,13.65,0,0,1,68.55,13.65Z"/><path class="cls-9" d="M67.55,13.64A12.65,12.65,0,1,1,54.9,1,12.65,12.65,0,0,1,67.55,13.64Z"/><path class="cls-10" d="M67.31,13.65A12.41,12.41,0,1,1,54.9,1.24,12.41,12.41,0,0,1,67.31,13.65Z"/><g class="cls-11"><rect x="54.44" y="1.74" width="0.92" height="3.33"/><rect x="54.44" y="22.03" width="0.92" height="3.34"/></g><g class="cls-11"><rect x="49.37" y="3.1" width="0.92" height="3.34" transform="translate(4.28 25.53) rotate(-29.98)"/><rect x="59.51" y="20.68" width="0.92" height="3.33" transform="matrix(0.86, -0.5, 0.5, 0.86, -3.11, 33.12)"/></g><g class="cls-11"><rect x="45.65" y="6.81" width="0.92" height="3.33" transform="matrix(0.5, -0.87, 0.87, 0.5, 15.67, 44.14)"/><rect x="63.23" y="16.96" width="0.92" height="3.33" transform="translate(15.77 64.53) rotate(-60.07)"/></g><g class="cls-11"><rect x="43.09" y="13.09" width="3.33" height="0.92"/><rect x="63.38" y="13.09" width="3.33" height="0.92"/></g><g class="cls-11"><rect x="44.45" y="18.17" width="3.33" height="0.92" transform="translate(-3.13 25.6) rotate(-30.06)"/><rect x="62.02" y="8.02" width="3.33" height="0.92" transform="translate(4.31 33.02) rotate(-30.04)"/></g><g class="cls-11"><rect x="48.16" y="21.88" width="3.33" height="0.93" transform="translate(5.61 54.39) rotate(-60.09)"/><rect x="58.31" y="4.3" width="3.33" height="0.92" transform="matrix(0.5, -0.87, 0.87, 0.5, 25.95, 54.38)"/></g><rect x="54.44" y="4.3" width="0.92" height="9.72"/><rect x="48.59" y="13.27" width="6.65" height="0.76"/><path class="cls-12" d="M62.3,14.5A9.15,9.15,0,1,1,44.66,9.66,9.15,9.15,0,1,1,62.3,14.5Z"/><path class="cls-13" d="M84.53,76.34c-1.6-.6-5.23-4.42-5.23-4.42L35.09,27.7s-3-2.93-3.47-4.17c-1.19-3.25.54-8.6-4.52-12.75C23.35,7.7,13.33,7.69,13.09,9c-.12.68,6.75,4.81,7.81,5.87s1.31,3.7.21,5.69c-.83,1.48-2.69,4.71-5,4.46s-8.27-5.87-9-5.11,3.53,8.92,6.37,10.61c4.17,2.46,6.84,1.32,9.14,2.07C23.88,33,27,36.1,27,36.1L71,80.18S75,83.9,75.55,85.51C76.64,88.43,75.34,93,80,96.79c3.44,2.81,12.61,2.82,12.83,1.64.11-.62-6.19-4.4-7.16-5.37s-1.18-3.4-.18-5.2c.76-1.36,2.47-4.32,4.61-4.1s7.56,5.38,8.26,4.69-3.23-8.19-5.84-9.72C88.67,76.48,86.54,77.1,84.53,76.34Z"/><path class="cls-14" d="M78.75,75.25a3.39,3.39,0,0,1,0,4.82h0A3.4,3.4,0,0,1,74,80L28.22,34.27a3.41,3.41,0,0,1,0-4.83h0a3.41,3.41,0,0,1,4.81,0Z"/><path class="cls-14" d="M27.22,26.64a4.89,4.89,0,0,1,2.89-.8,11.58,11.58,0,0,1,2.81,1.34,17.5,17.5,0,0,1-2.32-2.56,15.12,15.12,0,0,1-.82-4,8.57,8.57,0,0,1-1,3.73C28.19,25.29,27.22,26.64,27.22,26.64Z"/><path class="cls-14" d="M25.66,28.19a4.91,4.91,0,0,0-.79,2.89,11.52,11.52,0,0,0,1.34,2.82,17.5,17.5,0,0,0-2.56-2.32c-1-.57-3.93-.48-3.93-.48a11.63,11.63,0,0,0,3.62-1.31C24.31,29.16,25.66,28.19,25.66,28.19Z"/><path class="cls-14" d="M81.63,80.85a5,5,0,0,0,.81-3A11.43,11.43,0,0,0,81.06,75a17.61,17.61,0,0,0,2.64,2.39c1,.59,4.16.86,4.16.86a8.71,8.71,0,0,0-3.84,1C83,79.86,81.63,80.85,81.63,80.85Z"/><path class="cls-14" d="M80,82.46a5.06,5.06,0,0,1-3,.81,11.6,11.6,0,0,1-2.9-1.38,17.72,17.72,0,0,1,2.38,2.64c.59,1,.5,4.06.5,4.06a12.21,12.21,0,0,1,1.35-3.74C79,83.84,80,82.46,80,82.46Z"/><path class="cls-13" d="M78.53,76.37a2.2,2.2,0,0,1-.38,3h0a2.2,2.2,0,0,1-3.05.38L29,33.74a2.21,2.21,0,0,1,.38-3.06h0a2.22,2.22,0,0,1,3-.38Z"/><g class="cls-15"><rect class="cls-16" x="42.39" y="-3.72" width="12.56" height="125.08" transform="translate(-27.33 51.62) rotate(-44.99)"/></g><path class="cls-4" d="M56.31,50.68l6.39,6.39-2.17,2.17s-1.3-.48-3.67.69S53.45,66.31,52,67.82,23.64,96.14,22,97.77s-5.72,1.64-10.07-2.72Z"/><path class="cls-4" d="M56.31,50.68l-6.39-6.4-2.18,2.18s.48,1.3-.7,3.65S40.66,53.53,39.16,55L9.21,85c-1.63,1.63-1.64,5.71,2.72,10.06Z"/><polygon class="cls-13" points="96.53 10.46 97.92 11.87 57.71 52.08 56.31 50.68 96.53 10.46"/><polygon class="cls-14" points="95.11 9.06 96.53 10.46 56.31 50.68 54.9 49.27 95.11 9.06"/><polygon class="cls-13" points="88.31 18.67 94.53 18.21 101.45 8.9 99.77 7.21 88.31 18.67"/><polygon class="cls-14" points="88.31 18.67 88.77 12.45 98.08 5.53 99.77 7.21 88.31 18.67"/><path class="cls-17" d="M19.17,93.76a1.54,1.54,0,0,0,0,2.19h0a1.54,1.54,0,0,0,2.19,0L49,68.35a1.55,1.55,0,0,0,0-2.2h0a1.57,1.57,0,0,0-2.2,0Z"/><path class="cls-17" d="M15.1,89.69a1.56,1.56,0,0,0,0,2.19h0a1.54,1.54,0,0,0,2.19,0L44.9,64.28a1.56,1.56,0,0,0,0-2.19h0a1.55,1.55,0,0,0-2.2,0Z"/><path class="cls-17" d="M10.93,85.53a1.54,1.54,0,0,0,0,2.19h0a1.55,1.55,0,0,0,2.2,0l27.6-27.61a1.55,1.55,0,0,0,0-2.2h0a1.57,1.57,0,0,0-2.2,0Z"/></g></g></g></svg>