<svg xmlns="http://www.w3.org/2000/svg" viewBox="0 0 148.44 112.4"><defs><style>.cls-1{fill:#0f1616;}.cls-2{fill:#4f6665;}.cls-3{fill:#ffd150;}.cls-4{fill:#2d3f3f;}.cls-5{fill:#fa2;}.cls-6{fill:#e27600;}.cls-7{fill:#ea2c00;}.cls-8{fill:#ff5033;}.cls-9{fill:#c61c00;}.cls-10{fill:#becccc;}.cls-11{fill:#00569f;}.cls-12{fill:#0177c1;}.cls-13{fill:#4ebaea;}</style></defs><title>Recurso5</title><g id="Capa_2" data-name="Capa 2"><g id="Layer_1" data-name="Layer 1"><path class="cls-1" d="M123.72,0V2.43H116V0H39.34V2.43H31.65V0H28.43V92.24h3.22v-2.3h7.69v2.3H116v-2.3h7.69v2.3h3.4V0ZM39.34,86.3H31.65v-4h7.69Zm0-7.63H31.65v-4h7.69Zm0-7.62H31.65v-4h7.69Zm0-7.63H31.65v-4h7.69Zm0-7.62H31.65v-4h7.69Zm0-7.62H31.65v-4h7.69Zm0-7.63H31.65v-4h7.69Zm0-7.62H31.65V29h7.69Zm0-7.63H31.65v-4h7.69Zm0-7.62H31.65v-4h7.69Zm0-7.62H31.65v-4h7.69ZM123.72,86.3H116v-4h7.69Zm0-7.63H116v-4h7.69Zm0-7.62H116v-4h7.69Zm0-7.63H116v-4h7.69Zm0-7.62H116v-4h7.69Zm0-7.62H116v-4h7.69Zm0-7.63H116v-4h7.69Zm0-7.62H116V29h7.69Zm0-7.63H116v-4h7.69Zm0-7.62H116v-4h7.69Zm0-7.62H116v-4h7.69Z"/><path class="cls-2" d="M113,40c0,2.5-2.62,4.55-5.82,4.55H48.4c-3.21,0-5.82-2.05-5.82-4.55V8.31c0-2.5,2.61-4.55,5.82-4.55h58.75c3.2,0,5.82,2.05,5.82,4.55Z"/><path class="cls-2" d="M113,83.94c0,2.5-2.62,4.54-5.82,4.54H48.4c-3.21,0-5.82-2-5.82-4.54V52.27c0-2.5,2.61-4.55,5.82-4.55h58.75c3.2,0,5.82,2.05,5.82,4.55Z"/><path class="cls-3" d="M107.15,3.76H73L42.58,27.52V40c0,2.5,2.61,4.55,5.82,4.55h10L109.87,4.3A7,7,0,0,0,107.15,3.76Z"/><path class="cls-4" d="M78.57,44.52,113,17.65V8.31c0-.09,0-.17,0-.25L66.28,44.52Z"/><polygon class="cls-3" points="42.58 74.63 77.01 47.73 70 47.73 42.58 69.14 42.58 74.63"/><path class="cls-4" d="M113,57.85V52.27c0-2.5-2.62-4.55-5.82-4.55H88.36L42.58,83.49v.45c0,2.5,2.61,4.54,5.82,4.54H73.76Z"/><path class="cls-5" d="M89.06,102.91h8c0,3.09-1.9,9.31-1.9,9.31a13.27,13.27,0,0,1-3.6.1C90.54,110.22,89.06,102.91,89.06,102.91Z"/><path class="cls-6" d="M91.19,111.44a8.68,8.68,0,0,0,.34.88,13.27,13.27,0,0,0,3.6-.1s.1-.33.25-.87A8.89,8.89,0,0,1,91.19,111.44Z"/><path class="cls-5" d="M138.86,102.91h-8c0,3.09,1.9,9.31,1.9,9.31a13.2,13.2,0,0,0,3.59.1C137.37,110.22,138.86,102.91,138.86,102.91Z"/><path class="cls-6" d="M136.73,111.44a6.7,6.7,0,0,1-.35.88,13.2,13.2,0,0,1-3.59-.1s-.1-.33-.25-.87A8.89,8.89,0,0,0,136.73,111.44Z"/><path class="cls-7" d="M142.38,65.12c-2.3-13.52-16-16.81-24.36-17.65-1.25-.13-6.86-.13-8.11,0-8.39.85-22.07,4.13-24.37,17.66-.59,3.41-1.3,17.73,0,26.53h56.84C143.68,82.85,143,68.53,142.38,65.12Z"/><path class="cls-8" d="M109.91,47.46c-8.39.85-22.07,4.13-24.37,17.66-.05.24-.09.54-.13.88C88.3,58,100,52.07,114,52.07S139.62,58,142.51,66c0-.34-.09-.64-.13-.88-2.3-13.52-16-16.81-24.36-17.65C116.77,47.34,111.16,47.34,109.91,47.46Z"/><path class="cls-7" d="M142.87,90.66c-2.2,0-55.63,0-57.83,0s-2.07,1.74-2,2.81,1.79,9.29,2.07,9.89c.54,1.14,2,1.24,4.64,1.21,2.39,0,46,0,48.36,0,2.66,0,4.09-.07,4.64-1.21.28-.6,2-8.82,2.07-9.89S145.14,90.63,142.87,90.66Z"/><path class="cls-9" d="M89.19,90.68c6.06,2.74,14.91,4.46,24.77,4.46s18.71-1.72,24.77-4.46Z"/><path class="cls-7" d="M98.07,85.73c0,3.93-4.16,7.11-9.29,7.11s-9.3-3.18-9.3-7.11,4.16-7.11,9.3-7.11S98.07,81.81,98.07,85.73Z"/><path class="cls-9" d="M93.38,85A3.68,3.68,0,0,0,91,84.83a2.68,2.68,0,0,0-2-1,3.48,3.48,0,0,1-.48-2.28c-.87.39-1,1.78-1.09,2.41a2.07,2.07,0,0,0-1.74,1.86,1.62,1.62,0,0,0,.24.86,3.67,3.67,0,0,1-1.35,1.84,3.48,3.48,0,0,0,2.25-1,3.69,3.69,0,0,0,1.79.46c1.62,0,2.74-.9,2.74-2.11,0,0,0-.09,0-.14A5,5,0,0,1,93.38,85Z"/><path class="cls-3" d="M90.51,85.79c0,.76-.85,1.38-1.89,1.38s-1.88-.62-1.88-1.38.84-1.38,1.88-1.38S90.51,85,90.51,85.79Z"/><path class="cls-8" d="M95.93,83c-.66.38-2.32-2.52-7.46-2.52s-6.26,2.63-7,2.48c-1.79-.36,2.12-4.31,7.25-4.31S97.23,82.21,95.93,83Z"/><path class="cls-7" d="M129.84,85.73c0,3.93,4.17,7.11,9.3,7.11s9.3-3.18,9.3-7.11-4.16-7.11-9.3-7.11S129.84,81.81,129.84,85.73Z"/><path class="cls-9" d="M134.54,85a3.67,3.67,0,0,1,2.35-.15,2.66,2.66,0,0,1,2-1,3.48,3.48,0,0,0,.49-2.28c.87.39,1,1.78,1.08,2.41a2.07,2.07,0,0,1,1.75,1.86,1.62,1.62,0,0,1-.24.86,3.67,3.67,0,0,0,1.35,1.84,3.53,3.53,0,0,1-2.26-1,3.62,3.62,0,0,1-1.78.46c-1.62,0-2.74-.9-2.74-2.11,0,0,0-.09,0-.14A5,5,0,0,0,134.54,85Z"/><path class="cls-3" d="M137.41,85.79c0,.76.85,1.38,1.89,1.38s1.88-.62,1.88-1.38-.84-1.38-1.88-1.38S137.41,85,137.41,85.79Z"/><path class="cls-8" d="M132,83c.66.38,2.32-2.52,7.45-2.52s6.26,2.63,7,2.48c1.79-.36-2.12-4.31-7.26-4.31S130.69,82.21,132,83Z"/><path class="cls-2" d="M26.67,78.53a9.4,9.4,0,0,0-11,.38L2.69,89v7.17L18.3,81a4.91,4.91,0,0,1,5.81-.3,1.83,1.83,0,0,1,.76,2.34c-.06.14-.11.27-.16.4l2.57,1.14h0C29.21,82.73,29.25,80.37,26.67,78.53Z"/><path class="cls-10" d="M26.15,77.7a9.37,9.37,0,0,0-11,.38l-12.85,10,.66.72,12.7-9.89a9.4,9.4,0,0,1,11-.38,5.94,5.94,0,0,1,1.2,1.12A4.91,4.91,0,0,0,26.15,77.7Z"/><path class="cls-2" d="M36.3,78.53a9.39,9.39,0,0,1,11,.38L60.28,89v7.17L44.67,81a4.92,4.92,0,0,0-5.82-.3,1.83,1.83,0,0,0-.75,2.34,4,4,0,0,1,.15.4L35.69,84.6h0C33.76,82.73,33.71,80.37,36.3,78.53Z"/><path class="cls-10" d="M36.82,77.7a9.37,9.37,0,0,1,11,.38l12.84,10L60,88.8,47.33,78.91a9.39,9.39,0,0,0-11-.38,6,6,0,0,0-1.21,1.12A4.86,4.86,0,0,1,36.82,77.7Z"/><polygon class="cls-7" points="52.51 101.57 59.41 96.18 59.41 92.87 48.27 101.57 52.51 101.57"/><path class="cls-2" d="M58.7,87H4.27C1.92,87,0,88.45,0,90.28v10.84c0,1.83,1.92,3.33,4.27,3.33H23.48c4.75-.48,4.6-7.59,7.27-9a2.7,2.7,0,0,1,1.54,0c2.6,1.51,2.49,8.49,7.2,9H58.7c2.35,0,4.27-1.5,4.27-3.33V90.28C63,88.45,61.05,87,58.7,87Z"/><path class="cls-11" d="M24.73,98.65c0,1.61-1.68,2.92-3.74,2.92H7.29c-2,0-3.74-1.31-3.74-2.92v-5.9c0-1.61,1.69-2.92,3.74-2.92H21c2.06,0,3.74,1.31,3.74,2.92Z"/><path class="cls-12" d="M12.17,89.83,3.55,96.56v2.09a2.9,2.9,0,0,0,1.87,2.53L20,89.83Z"/><path class="cls-12" d="M9.47,101.57l14-11A3.9,3.9,0,0,0,22.26,90L7.46,101.57Z"/><polygon class="cls-12" points="17.82 101.57 24.73 96.18 24.73 92.87 13.59 101.57 17.82 101.57"/><path class="cls-9" d="M59.41,98.65c0,1.61-1.68,2.92-3.73,2.92H42c-2,0-3.73-1.31-3.73-2.92v-5.9c0-1.61,1.68-2.92,3.73-2.92H55.68c2,0,3.73,1.31,3.73,2.92Z"/><path class="cls-7" d="M46.85,89.83l-8.61,6.73v2.09a2.89,2.89,0,0,0,1.87,2.53L54.63,89.83Z"/><path class="cls-7" d="M44.15,101.57l14-11A3.85,3.85,0,0,0,57,90l-14.8,11.56Z"/><path class="cls-10" d="M3.41,87.92H59.56a5.16,5.16,0,0,1,3,.91A4.52,4.52,0,0,0,58.7,87H4.27A4.52,4.52,0,0,0,.43,88.83,5.16,5.16,0,0,1,3.41,87.92Z"/><path class="cls-12" d="M7.29,100.74a2.44,2.44,0,0,1-2.67-2.09v-5.9a2.44,2.44,0,0,1,2.67-2.09H21a2.44,2.44,0,0,1,2.67,2.09v5.9A2.44,2.44,0,0,1,21,100.74Z"/><path class="cls-13" d="M6.21,100.56l12.67-9.9H11.1L4.62,95.72v2.93A2.16,2.16,0,0,0,6.21,100.56Z"/><path class="cls-13" d="M8.53,100.74h2l12.22-9.55a3,3,0,0,0-1.37-.49Z"/><polygon class="cls-13" points="18.89 100.74 23.66 97.01 23.66 93.7 14.66 100.74 18.89 100.74"/><path class="cls-7" d="M42,100.74a2.43,2.43,0,0,1-2.66-2.09v-5.9A2.43,2.43,0,0,1,42,90.66H55.68a2.44,2.44,0,0,1,2.67,2.09v5.9a2.44,2.44,0,0,1-2.67,2.09Z"/><path class="cls-8" d="M40.9,100.56l12.67-9.9H45.78l-6.47,5.06v2.93A2.14,2.14,0,0,0,40.9,100.56Z"/><path class="cls-8" d="M43.21,100.74h2l12.22-9.55a3,3,0,0,0-1.37-.49Z"/><polygon class="cls-8" points="53.58 100.74 58.35 97.01 58.35 93.7 49.34 100.74 53.58 100.74"/></g></g></svg>