<svg xmlns="http://www.w3.org/2000/svg" viewBox="0 0 148.44 112.4"><defs><style>.cls-1{fill:#0f1616;}.cls-2{fill:#ff5033;}.cls-3{fill:#fff;}.cls-4{fill:#2d3f3f;}.cls-5{fill:#ffca85;}.cls-6{fill:#becccc;}.cls-15,.cls-7{fill:#ea2c00;}.cls-12,.cls-8{fill:#c61c00;}.cls-16,.cls-9{fill:#ffd150;}.cls-10{fill:#fa2;}.cls-11,.cls-13{fill:#4ebaea;}.cls-11,.cls-12,.cls-15,.cls-16{fill-rule:evenodd;}.cls-14{fill:#ff452c;}</style></defs><title>Recurso 4</title><g id="Capa_2" data-name="Capa 2"><g id="Layer_1" data-name="Layer 1"><path class="cls-1" d="M127,0V7H116.75V0H14.54V7H4.29V0H0V95.5H4.29V90.86H14.54V95.5H116.75V90.86H127V95.5h4.53V0ZM14.54,83.55H4.29v-8H14.54Zm0-15.32H4.29v-8H14.54Zm0-15.31H4.29v-8H14.54Zm0-15.32H4.29v-8H14.54Zm0-15.32H4.29v-8H14.54ZM127,83.55H116.75v-8H127Zm0-15.32H116.75v-8H127Zm0-15.31H116.75v-8H127Zm0-15.32H116.75v-8H127Zm0-15.32H116.75v-8H127Z"/><path class="cls-2" d="M110.55,78c0,4.77-3.33,8.68-7.4,8.68H28.39C24.32,86.65,21,82.74,21,78V17.53c0-4.77,3.34-8.68,7.41-8.68h74.76c4.07,0,7.4,3.91,7.4,8.68Z"/><path class="cls-3" d="M110.55,46.56H98c-.56-19-14.22-34.25-31.17-34.87V8.85H64.7v2.84c-17,.62-30.61,15.91-31.17,34.87H21v2.38H33.53c.56,19,14.22,34.25,31.17,34.87v2.84h2.13V83.81c17-.62,30.61-15.91,31.17-34.87h12.55ZM64.7,81.43c-15.78-.62-28.48-14.84-29-32.49h2.48C38.7,65.06,50.29,78,64.7,78.65Zm0-5.16c-13.23-.62-23.88-12.52-24.43-27.33H64.7Zm0-29.71H40.27c.55-14.81,11.2-26.71,24.43-27.33Zm0-29.71c-14.41.62-26,13.59-26.56,29.71H35.66c.56-17.65,13.26-31.87,29-32.49Zm2.13,2.38c13.24.62,23.88,12.52,24.43,27.33H66.83Zm0,29.71H91.26c-.55,14.81-11.19,26.71-24.43,27.33Zm0,32.49V78.65c14.41-.62,26-13.59,26.56-29.71h2.48C95.31,66.59,82.61,80.81,66.83,81.43ZM93.39,46.56c-.56-16.12-12.15-29.09-26.56-29.71V14.07c15.78.62,28.48,14.84,29,32.49Z"/><path class="cls-4" d="M52.84,30.55c2-2.42,6.82-5.9,11.87-5.9,9,0,14.15,5.21,14.15,13.16a10.17,10.17,0,0,1-4.11,7.88,12.78,12.78,0,0,1,5.16,10.18c0,9.19-7.88,13.66-15.37,13.66-5.27,0-10.76-3.41-12.93-7l5.66-6.58c2.06,2.29,4.16,4,7.33,4s5-1.67,5-4.78c0-3.35-1.83-4.53-4.6-4.53H60.82V43.27h4.06c2.66,0,4.71-1.49,4.71-4.28a4.72,4.72,0,0,0-4.88-4.91c-2.11,0-4.55,1.43-6.49,3.73Z"/><path class="cls-5" d="M101.39,64.64C100,62.77,100.77,61,102.72,61c-.67-1.93,1.45-5.18,3.85-2,.92-1.2,3.19-.87,3.11.94,2.38.52,2.1,4.37-.21,4.54a1.57,1.57,0,0,1-2.28,1.77c-.45,2.62-3.41,2.75-4.21.26C100.77,68.06,101.39,64.64,101.39,64.64Z"/><polygon class="cls-6" points="105.2 70.23 104.46 70.23 85.81 70.23 92.19 107.72 104.46 107.72 105.2 107.72 117.47 107.72 123.86 70.23 105.2 70.23"/><polygon class="cls-7" points="114.61 107.72 117.47 107.72 123.86 70.23 119.62 70.23 114.61 107.72"/><polygon class="cls-7" points="106.69 107.72 110.46 107.72 113.59 70.23 107.43 70.23 106.69 107.72"/><polygon class="cls-7" points="99.2 107.72 102.97 107.72 102.24 70.23 96.08 70.23 99.2 107.72"/><polygon class="cls-7" points="92.19 107.72 95.06 107.72 90.04 70.23 85.81 70.23 92.19 107.72"/><polygon class="cls-8" points="104.46 70.23 85.81 70.23 86.4 73.72 123.26 73.72 123.86 70.23 105.2 70.23 104.46 70.23"/><rect class="cls-7" x="85.06" y="68.08" width="39.55" height="3.5"/><path class="cls-9" d="M108.43,63.32c-1.53-2.79,2.85-5.48,5-2.8.07-1.46,4.12-3,3.83,1.09,1.85-.36,2,3.46-.21,3,.5,3.38-3,4.72-4.39,2.21-.1,2.43-5.21,2-3.92-1.71C106.43,64.8,108.43,63.32,108.43,63.32Z"/><path class="cls-9" d="M114.51,63.1c.1-2.42,1.74-3.19,3.15-1.68.66-1.94,4.18-2.77,4.08,1.36,1.4-.2,2.89,1.75,1.75,3,1.45,2.17-1.06,4.82-2.87,3.21a1.48,1.48,0,0,1-2.76-.39c-1.9,1.61-4.18-.52-3.28-3C112,65.17,114.51,63.1,114.51,63.1Z"/><path class="cls-9" d="M86.59,64.23c-.32-2.39,1.15-3.5,2.8-2.33.3-2,3.61-3.63,4.24.45,1.34-.51,3.14,1.08,2.24,2.59,1.8,1.8-.19,5-2.26,3.77a1.47,1.47,0,0,1-2.76.22c-1.59,2-4.19.41-3.74-2.19C84.5,66.81,86.59,64.23,86.59,64.23Z"/><path class="cls-9" d="M98,53.38c1.87,1.2,1.74,3.18-.11,3.9,1.24,1.54.29,5.42-3,3.44-.48,1.48-2.71,2.07-3.21.34-2.38.46-3.35-3.25-1.24-4.32a1.69,1.69,0,0,1,1.57-2.56c-.4-2.63,2.33-3.92,3.86-1.91C97.52,49.94,98,53.38,98,53.38Z"/><path class="cls-9" d="M100.86,53.09c.1-2.42,1.73-3.19,3.15-1.68.66-1.94,4.18-2.77,4.08,1.36,1.4-.2,2.89,1.75,1.74,3,1.46,2.16-1,4.81-2.87,3.21a1.48,1.48,0,0,1-2.75-.4c-1.9,1.61-4.18-.52-3.28-3C98.35,55.16,100.86,53.09,100.86,53.09Z"/><path class="cls-9" d="M109.12,56.68c-1.28-2.57,2.74-4.82,4.59-2.32.11-1.31,3.81-2.5,3.41,1.13,1.68-.25,1.67,3.19-.28,2.69.34,3.07-2.85,4.13-4,1.82-.17,2.19-4.76,1.62-3.47-1.69C107.28,57.93,109.12,56.68,109.12,56.68Z"/><path class="cls-10" d="M99.74,59.77c1.88,1.21,1.74,3.18-.1,3.9,1.23,1.54.28,5.43-3,3.44-.48,1.48-2.71,2.08-3.21.35-2.38.46-3.34-3.26-1.23-4.33a1.69,1.69,0,0,1,1.57-2.56c-.41-2.62,2.32-3.92,3.86-1.91C99.24,56.33,99.74,59.77,99.74,59.77Z"/><path class="cls-9" d="M96.1,66.58C95.2,64.78,98,63.2,99.32,65c.08-.92,2.67-1.76,2.4.79,1.17-.17,1.17,2.24-.2,1.89.24,2.15-2,2.9-2.83,1.27-.11,1.54-3.33,1.14-2.43-1.18C94.81,67.46,96.1,66.58,96.1,66.58Z"/><path class="cls-9" d="M102,58c1.88,1.21,1.74,3.18-.1,3.9,1.24,1.54.29,5.42-3,3.44-.47,1.48-2.71,2.07-3.2.34-2.39.46-3.35-3.25-1.24-4.32A1.69,1.69,0,0,1,96,58.78c-.41-2.63,2.32-3.92,3.86-1.91C101.46,54.54,102,58,102,58Z"/><path class="cls-10" d="M102.49,60.86c.13-3.13,2.24-4.13,4.08-2.17.85-2.52,5.42-3.59,5.3,1.77,1.81-.27,3.74,2.26,2.25,3.93,1.89,2.8-1.36,6.24-3.72,4.16a1.91,1.91,0,0,1-3.57-.51c-2.47,2.08-5.42-.67-4.26-3.84C99.24,63.55,102.49,60.86,102.49,60.86Z"/><path class="cls-9" d="M101.55,61.82c.13-3.14,2.25-4.14,4.09-2.18.86-2.52,5.43-3.59,5.31,1.77,1.82-.26,3.76,2.27,2.26,3.94,1.89,2.8-1.37,6.25-3.73,4.16A1.92,1.92,0,0,1,105.9,69c-2.47,2.08-5.43-.67-4.26-3.85C98.29,64.5,101.55,61.82,101.55,61.82Z"/><path class="cls-10" d="M108.36,62.16a.95.95,0,1,1-.94-1A1,1,0,0,1,108.36,62.16Z"/><path class="cls-10" d="M109.64,63.75a.57.57,0,1,1-.57-.63A.6.6,0,0,1,109.64,63.75Z"/><path class="cls-10" d="M107.07,64.77a.93.93,0,1,1-.93-1A1,1,0,0,1,107.07,64.77Z"/><path class="cls-10" d="M101.62,64.05a.93.93,0,1,1-.93-1A1,1,0,0,1,101.62,64.05Z"/><path class="cls-10" d="M99.53,62.16a.57.57,0,1,1-1.13,0,.57.57,0,1,1,1.13,0Z"/><path class="cls-10" d="M102.42,61.51a.92.92,0,1,1-.92-1A1,1,0,0,1,102.42,61.51Z"/><path class="cls-10" d="M103.32,56.31c-1.35-2.92-3.81-.84-3.72,1-1.65-.65-2.75.59-2.14,2.57A1.5,1.5,0,0,1,99.67,59c-.09-1.91,2.6-4.08,3.9-.56l.15-.09A5.68,5.68,0,0,0,103.32,56.31Z"/><path class="cls-10" d="M114.58,56.86a1.09,1.09,0,1,1-1.09-1.19A1.14,1.14,0,0,1,114.58,56.86Z"/><path class="cls-9" d="M114,57.37a.88.88,0,1,1-1.76,0,.88.88,0,1,1,1.76,0Z"/><path class="cls-10" d="M105.19,53.82a.94.94,0,1,1-.94-1A1,1,0,0,1,105.19,53.82Z"/><path class="cls-10" d="M106,54a.57.57,0,1,1-.57-.63A.6.6,0,0,1,106,54Z"/><path class="cls-10" d="M108.34,66a1.16,1.16,0,1,1-1.16-1.27A1.21,1.21,0,0,1,108.34,66Z"/><path class="cls-9" d="M104.15,58.15a.73.73,0,0,1-.7.77.74.74,0,0,1-.71-.77.75.75,0,0,1,.71-.78A.74.74,0,0,1,104.15,58.15Z"/><path class="cls-10" d="M121.05,62.27a.74.74,0,0,1-.7.78.78.78,0,0,1,0-1.55A.74.74,0,0,1,121.05,62.27Z"/><polygon class="cls-6" points="133.8 76.91 136.66 60.48 136.74 60.05 137.07 59.82 139.88 57.86 140.1 57.7 140.36 57.7 148.44 57.7 148.44 59.71 140.61 59.71 138.34 61.29 135.55 77.29 133.8 76.91"/><polygon class="cls-11" points="137.66 59.4 138.61 61.1 138.37 61.27 137.42 59.58 137.66 59.4"/><polygon class="cls-11" points="138.46 58.85 139.4 60.55 139.16 60.72 138.21 59.02 138.46 58.85"/><polygon class="cls-11" points="138.06 59.13 139.01 60.82 138.76 60.99 137.81 59.3 138.06 59.13"/><polygon class="cls-11" points="138.85 58.58 139.8 60.27 139.55 60.44 138.61 58.75 138.85 58.58"/><polygon class="cls-11" points="139.25 58.3 140.2 59.99 139.95 60.17 139 58.47 139.25 58.3"/><polygon class="cls-11" points="139.64 58.02 140.59 59.72 140.34 59.89 139.4 58.2 139.64 58.02"/><rect class="cls-6" x="133.61" y="73.53" width="3.42" height="2.17"/><polygon class="cls-12" points="133.8 112.4 137.31 78.61 127.56 78.61 117.81 78.61 121.33 112.4 133.8 112.4"/><rect class="cls-6" x="115.87" y="74.98" width="23.38" height="4.86"/><rect class="cls-13" x="115.87" y="74.98" width="23.38" height="1.03"/><rect class="cls-14" x="120.72" y="111.16" width="13.68" height="1.24"/><path class="cls-11" d="M117.8,76.84c.77,0,1.43,1,1.62,2.48h-3.25C116.37,77.89,117,76.84,117.8,76.84Z"/><path class="cls-11" d="M121.05,76.84c.78,0,1.43,1,1.63,2.48h-3.26C119.62,77.89,120.28,76.84,121.05,76.84Z"/><path class="cls-11" d="M124.31,76.84c.77,0,1.43,1,1.62,2.48h-3.25C122.88,77.89,123.53,76.84,124.31,76.84Z"/><path class="cls-11" d="M127.56,76.84c.78,0,1.43,1,1.63,2.48h-3.26C126.13,77.89,126.79,76.84,127.56,76.84Z"/><path class="cls-11" d="M130.82,76.84c.77,0,1.43,1,1.62,2.48h-3.25C129.39,77.89,130,76.84,130.82,76.84Z"/><path class="cls-11" d="M134.07,76.84c.78,0,1.43,1,1.63,2.48h-3.26C132.64,77.89,133.3,76.84,134.07,76.84Z"/><path class="cls-11" d="M137.33,76.84c.77,0,1.43,1,1.62,2.48H135.7C135.9,77.89,136.55,76.84,137.33,76.84Z"/><polygon class="cls-15" points="118.44 84.59 136.69 84.59 134.53 105.37 120.6 105.37 118.44 84.59"/><polygon class="cls-16" points="118.53 85.52 136.59 85.52 134.63 104.44 120.5 104.44 118.53 85.52"/></g></g></svg>