<svg xmlns="http://www.w3.org/2000/svg" viewBox="0 0 175.95 175.94"><defs><style>.cls-1{fill:#727270;}.cls-2{fill:#67cdfd;}</style></defs><title>Recurso 3</title><g id="Capa_2" data-name="Capa 2"><g id="_5" data-name="5"><path class="cls-1" d="M175.68,96.24H171.4c-.28,0-.85,0-.85-.54v-36A52.51,52.51,0,0,1,153.21,72c2.27-.54,1.13,1.6,1.13,2.39,1.14,6.14,0,16-.27,21.87H114.84C121.66,88,127.63,78.91,135,71.44c21,3.73,37.81-12.53,35.53-29.59-.28-1.59-.56-3.46-2.27-4.8-8.25,2.67-9.66,11.73-16.49,15.47-4.54-1.33-10.24-1.87-15.06-2.94A89.6,89.6,0,0,0,130.47,36c2.27-2.66,4.84-5.32,7.39-8.26,2-2.4,6-5.33,4.83-9.33-21.87-3.46-36.66,19.2-27.28,38.39-8.24,9.86-17.63,18.93-25.58,29.06,2.27,3.46,8,6.13,8.24,10.4C95.8,95.7,94.37,93.3,93,91.7,84.14,82.64,73.63,73.58,64.24,65c-1.14-1.06-2.55-4.52-5.12-3.19-1.14,3.46,2.57,2.66,3.7,3.46,4.54,3.2,2.56,6.13,1.42,10.4S62.82,85,61.12,88.24c1.42,3.46,6.24,5.59,6.82,8H55.71c1.71-7.47,6.26-14.67,6-22.93,5.4-4.27-2-8-6-8.8,4.84-14.66,9.95-29.59,14.22-44.78C74.48,16,75,9.06,75.61,1.6,73.34,1.07,71.35.54,68.79,0c-.85,3.73-3.41,6.4-4.55,9.86-.85,3.2,0,6.67-.85,9.87C60.27,34.39,52.87,49.05,49.17,63.18c-4-2.4-11.65-1.6-9.66,4-6,7.73-6.82,20-11.38,29.06H23c-.57,0-1.13,0-1.42-.54,0-7.73-.85-16.79.29-23.72h9.66c1.14-3.2,1.71-6.94,3.7-9.33C29.57,57.58,24.46,52,18.2,47.19,16.77,52.78,7.11,54.91,5.69,61.05c-1.43,5.06,0,12,0,17.59v17.6H0v79.7H176V96.24Z"/><path class="cls-2" d="M36.11,83.44h0c1.13-3.74,2.27-10.13,6-10.13,6.26-.53,2.27,7.73,1.42,10.39-2,5.34-2.27,8.53-3.69,12.54H32.41c1.13-4.27,2-8,3.7-12.8Z"/><path class="cls-2" d="M52,77.31h0c2-1.34,5.12-.54,6,1.33,1.71,4.53-5.11,13.06-5.11,17.6H45.48c3.12-4,2.56-16,6.54-18.93Z"/></g></g></svg>