<svg xmlns="http://www.w3.org/2000/svg" viewBox="0 0 148.44 112.4"><defs><style>.cls-1{fill:#4f6665;}.cls-2{fill:#0f1616;}.cls-3{fill:#2d3f3f;}.cls-4{fill:#ea2c00;}.cls-5{fill:#fff;}.cls-6{fill:#e27600;}.cls-7{fill:#ffd150;}.cls-8{fill:#fa2;}</style></defs><title>Recurso 1</title><g id="Capa_2" data-name="Capa 2"><g id="Layer_1" data-name="Layer 1"><rect class="cls-1" x="10.99" y="13.85" width="137.45" height="98.55" rx="8.03"/><path class="cls-2" d="M143.08,96.86V27.24a8,8,0,0,0-8-8H24.38a8,8,0,0,0-8,8V96.86Z"/><path class="cls-3" d="M141,106.68H19.14a3.35,3.35,0,1,1,0-6.69H141a3.35,3.35,0,0,1,0,6.69Z"/><path class="cls-4" d="M106.72,100H19.14a3.35,3.35,0,1,0,0,6.69h87.58Z"/><path class="cls-2" d="M111.29,103.33a4.46,4.46,0,1,1-4.46-4.46A4.46,4.46,0,0,1,111.29,103.33Z"/><path class="cls-3" d="M109.12,103.33a2.29,2.29,0,1,1-2.29-2.29A2.3,2.3,0,0,1,109.12,103.33Z"/><polygon class="cls-3" points="56.44 19.21 16.35 59.3 16.35 96.86 22.34 96.86 100 19.21 56.44 19.21"/><path class="cls-3" d="M73.1,96.86l70-70a8.07,8.07,0,0,0-2.44-5.42L65.25,96.86Z"/><polygon class="cls-3" points="100.89 96.86 143.08 54.67 143.08 33.42 79.64 96.86 100.89 96.86"/><path class="cls-5" d="M79.72,36a20.42,20.42,0,1,0,20.41,20.41A20.41,20.41,0,0,0,79.72,36Zm0,37.48A17.07,17.07,0,1,1,96.78,56.41,17.07,17.07,0,0,1,79.72,73.48Z"/><polygon class="cls-5" points="74.85 56.41 74.85 44.9 82.39 50.65 89.93 56.41 82.39 62.17 74.85 67.93 74.85 56.41"/><polygon class="cls-6" points="31.86 15.23 48.69 17.65 36.53 29.54 39.43 46.28 24.37 38.4 9.34 46.33 12.19 29.57 0 17.72 16.82 15.25 24.32 0 31.86 15.23"/><polygon class="cls-7" points="31.86 15.23 24.32 0 16.82 15.25 16.81 15.25 24.33 25.64 31.93 15.24 31.86 15.23"/><polygon class="cls-8" points="24.33 25.64 36.55 29.61 36.53 29.54 48.69 17.65 31.9 15.24 24.33 25.64"/><polygon class="cls-8" points="39.43 46.28 36.55 29.61 24.33 25.64 24.33 38.42 24.33 38.42 24.37 38.4 39.43 46.28"/><polygon class="cls-8" points="9.34 46.33 24.33 38.42 24.33 25.64 12.18 29.59 9.34 46.33"/><polygon class="cls-7" points="24.33 25.64 16.8 15.26 0 17.72 12.19 29.57 12.18 29.59 24.33 25.64"/><polygon class="cls-6" points="24.33 25.64 31.9 15.24 48.69 17.65 24.33 25.64"/><polygon class="cls-8" points="24.33 25.64 31.93 15.24 31.86 15.23 24.32 0 24.33 25.64"/><polygon class="cls-8" points="0 17.72 16.8 15.26 24.33 25.64 0 17.72"/><polygon class="cls-6" points="9.34 46.33 12.18 29.59 24.33 25.64 9.34 46.33"/><polygon class="cls-7" points="39.43 46.28 24.37 38.4 24.33 38.42 24.33 38.42 24.33 25.64 39.43 46.28"/><polygon class="cls-6" points="17.17 27.94 9.97 20.95 19.9 19.49 24.33 10.48 28.79 19.48 38.72 20.91 31.55 27.93 33.26 37.81 24.37 33.16 15.49 37.84 17.17 27.94"/><polygon class="cls-8" points="17.17 27.94 15.88 35.5 31.51 19.87 28.79 19.48 26.66 15.19 15.52 26.34 17.17 27.94"/><polygon class="cls-8" points="23.8 33.45 36.65 20.61 34.43 20.29 18.42 36.29 23.8 33.45"/><path class="cls-5" d="M17.84,24.24a1.26,1.26,0,0,0,.76.33c.29,0,.43-.12.43-.3s-.17-.26-.44-.37l-.4-.17a.89.89,0,0,1-.62-.84A1,1,0,0,1,18.66,22a1.42,1.42,0,0,1,1,.41l-.36.44a1,1,0,0,0-.64-.25c-.24,0-.39.1-.39.28s.2.25.47.36l.4.16a.87.87,0,0,1,.61.84,1,1,0,0,1-1.17,1,1.73,1.73,0,0,1-1.14-.45Z"/><path class="cls-5" d="M20.25,22H21v1.72c0,.61.19.82.53.82s.55-.21.55-.82V22h.67v1.65c0,1-.42,1.49-1.22,1.49s-1.23-.45-1.23-1.49Z"/><path class="cls-5" d="M23.41,22h1.13c.66,0,1.2.24,1.2,1s-.55,1-1.2,1h-.43v1.05h-.7Zm1.08,1.48c.39,0,.57-.17.57-.49s-.2-.44-.57-.44h-.38v.93Z"/><path class="cls-5" d="M26.27,22H28.2v.58H27v.62H28v.58H27v.71h1.28v.59h-2Z"/><path class="cls-5" d="M30.53,25.11,29.94,24h-.38v1.11h-.7V22H30c.65,0,1.19.22,1.19,1a.89.89,0,0,1-.55.88l.7,1.24Zm-1-1.66h.36c.36,0,.56-.16.56-.46s-.2-.41-.56-.41h-.36Z"/><path class="cls-5" d="M19.61,28.41a1.25,1.25,0,0,0,.76.32c.29,0,.43-.12.43-.3s-.17-.25-.44-.37l-.4-.17a.89.89,0,0,1-.62-.84,1,1,0,0,1,1.1-.92,1.42,1.42,0,0,1,1,.41l-.36.44a1,1,0,0,0-.63-.25c-.25,0-.4.11-.4.28s.21.26.47.37l.4.16a.85.85,0,0,1,.61.83,1,1,0,0,1-1.17,1,1.64,1.64,0,0,1-1.13-.45Z"/><path class="cls-5" d="M22.55,26.78H21.7v-.59h2.39v.59h-.84v2.49h-.7Z"/><path class="cls-5" d="M25.83,28.54h-.94l-.19.73H24l1-3.08h.83l1,3.08H26ZM25.69,28l-.07-.29c-.09-.31-.17-.67-.25-1h0c-.08.32-.16.68-.24,1L25,28Z"/><path class="cls-5" d="M28.76,29.27l-.59-1.11h-.38v1.11h-.7V26.19H28.2c.65,0,1.19.23,1.19,1a.91.91,0,0,1-.55.89l.7,1.23Zm-1-1.66h.35c.37,0,.57-.16.57-.46s-.2-.41-.57-.41h-.35Z"/></g></g></svg>