<svg xmlns="http://www.w3.org/2000/svg" xmlns:xlink="http://www.w3.org/1999/xlink" viewBox="0 0 189.46 188.67"><defs><style>.cls-1{isolation:isolate;}.cls-2{fill:#fff;}.cls-10,.cls-3,.cls-4,.cls-5{opacity:0.3;}.cls-10,.cls-3,.cls-4,.cls-5,.cls-6,.cls-9{mix-blend-mode:screen;}.cls-3{fill:url(#radial-gradient);}.cls-4{fill:url(#radial-gradient-2);}.cls-5{fill:url(#radial-gradient-3);}.cls-7{fill:url(#radial-gradient-4);}.cls-8{fill:url(#radial-gradient-5);}.cls-9{fill:url(#linear-gradient);}.cls-10{fill:url(#linear-gradient-2);}</style><radialGradient id="radial-gradient" cx="95.35" cy="268.55" r="94.31" gradientTransform="translate(-63.43 -142.99) rotate(-14.07)" gradientUnits="userSpaceOnUse"><stop offset="0.88"/><stop offset="0.9" stop-color="#030303"/><stop offset="0.92" stop-color="#0d0d0d"/><stop offset="0.93" stop-color="#1e1e1e"/><stop offset="0.95" stop-color="#353535"/><stop offset="0.96" stop-color="#545454"/><stop offset="0.97" stop-color="#797979"/><stop offset="0.98" stop-color="#a6a6a6"/><stop offset="0.99" stop-color="#d8d8d8"/><stop offset="1" stop-color="#fff"/></radialGradient><radialGradient id="radial-gradient-2" cx="95.34" cy="286.88" r="85.63" xlink:href="#radial-gradient"/><radialGradient id="radial-gradient-3" cx="105.19" cy="235.11" r="73.62" xlink:href="#radial-gradient"/><radialGradient id="radial-gradient-4" cx="185.86" cy="81.62" r="13.8" gradientUnits="userSpaceOnUse"><stop offset="0" stop-color="#9a9a9a"/><stop offset="1"/></radialGradient><radialGradient id="radial-gradient-5" cx="85.18" cy="183.24" r="11.17" xlink:href="#radial-gradient-4"/><linearGradient id="linear-gradient" x1="-30.74" y1="113.02" x2="39.68" y2="113.02" gradientTransform="translate(57.54 -26.11) rotate(8.23)" gradientUnits="userSpaceOnUse"><stop offset="0" stop-color="#ababab"/><stop offset="0.08" stop-color="#999"/><stop offset="0.41" stop-color="#585858"/><stop offset="0.68" stop-color="#282828"/><stop offset="0.88" stop-color="#0b0b0b"/><stop offset="1"/></linearGradient><linearGradient id="linear-gradient-2" x1="-272.95" y1="363.41" x2="-236.56" y2="363.41" gradientTransform="translate(-163.49 414.29) rotate(-169.2)" xlink:href="#linear-gradient"/></defs><title>Recurso1</title><g class="cls-1"><g id="Capa_2" data-name="Capa 2"><g id="Layer_2" data-name="Layer 2"><path class="cls-2" d="M150.17,87.49a54.86,54.86,0,0,0-109.62-1c0,.79-.06,1.59-.06,2.4A53.92,53.92,0,0,0,48.36,117l-9.9,29.2,30.37-9.65a54.92,54.92,0,0,0,26.52,6.77c30.3,0,54.85-24.36,54.85-54.42C150.2,88.41,150.18,88,150.17,87.49ZM95.35,134.63A46.14,46.14,0,0,1,70,127.06l-17.72,5.63,5.76-17a45.28,45.28,0,0,1-8.78-26.83c0-1.5.08-3,.22-4.44a46.14,46.14,0,0,1,91.86.86c.09,1.18.16,2.37.16,3.58A46,46,0,0,1,95.35,134.63Z"/><path class="cls-2" d="M120.47,99.85c-1.34-.67-8-3.9-9.19-4.34s-2.13-.67-3,.67-3.47,4.34-4.26,5.23-1.56,1-2.91.33a36.58,36.58,0,0,1-10.81-6.62,39.8,39.8,0,0,1-7.48-9.24c-.78-1.33-.08-2,.59-2.72s1.34-1.56,2-2.33a7.35,7.35,0,0,0,.49-.64,13.72,13.72,0,0,0,.85-1.59,2.43,2.43,0,0,0-.11-2.34c-.33-.66-3-7.23-4.14-9.9s-2.24-2.23-3-2.23S77.78,64,76.88,64a5,5,0,0,0-3.58,1.67,14.93,14.93,0,0,0-4.71,11.13,16.48,16.48,0,0,0,.7,4.54,30.35,30.35,0,0,0,4.79,9.26c.67.88,9.3,14.8,23,20.14s13.67,3.56,16.14,3.34,8-3.23,9.08-6.35,1.11-5.79.78-6.34S121.81,100.52,120.47,99.85Z"/><circle class="cls-3" cx="94.33" cy="94.33" r="94.31"/><path class="cls-4" d="M142.64,108.69A64.18,64.18,0,0,1,129,113.85c-17.75,5-37.27,7.61-55.84,4.77-32.2-5-54.57-32.34-65.19-62.07A94.31,94.31,0,1,0,186.23,73.14a119.49,119.49,0,0,1-21.64,22A90.67,90.67,0,0,1,142.64,108.69Z"/><path class="cls-5" d="M71.41,2.85A94.17,94.17,0,0,0,7.92,56.55c10.62,29.73,33,57.08,65.19,62.07,18.57,2.84,38.09.25,55.84-4.77a64.18,64.18,0,0,0,13.69-5.16,90.67,90.67,0,0,0,22-13.56,119.49,119.49,0,0,0,21.64-22c-.14-.57-.27-1.15-.41-1.73A94.32,94.32,0,0,0,71.41,2.85Z"/><g class="cls-6"><path class="cls-7" d="M182.25,62.56a108,108,0,0,1,5.48,38.34c0,1.06,1.61,1.06,1.65,0a109,109,0,0,0-5.54-38.77c-.34-1-1.93-.58-1.59.43Z"/></g><g class="cls-6"><path class="cls-8" d="M69.28,182.25A65.86,65.86,0,0,0,101,184.92c1-.17.6-1.76-.44-1.59a64.13,64.13,0,0,1-30.88-2.67c-1-.34-1.44,1.25-.44,1.59Z"/></g><path class="cls-9" d="M63.25,90c-5.31,36.72,26.24,70.6-5.13,66.07S5.64,118.07,11,81.35s35-62.81,66.4-58.27S68.56,53.26,63.25,90Z"/><path class="cls-10" d="M145.92,102.8c3.59-18.83-11.91-37.06,4.18-34s26.22,20.83,22.63,39.66S153.18,140.08,137.09,137,142.33,121.63,145.92,102.8Z"/></g></g></g></svg>