<svg xmlns="http://www.w3.org/2000/svg" xmlns:xlink="http://www.w3.org/1999/xlink" viewBox="0 0 189.46 188.67"><defs><style>.cls-1{isolation:isolate;}.cls-2{fill:#fff;}.cls-10,.cls-3,.cls-4,.cls-5{opacity:0.3;}.cls-10,.cls-3,.cls-4,.cls-5,.cls-6,.cls-9{mix-blend-mode:screen;}.cls-3{fill:url(#radial-gradient);}.cls-4{fill:url(#radial-gradient-2);}.cls-5{fill:url(#radial-gradient-3);}.cls-7{fill:url(#radial-gradient-4);}.cls-8{fill:url(#radial-gradient-5);}.cls-9{fill:url(#linear-gradient);}.cls-10{fill:url(#linear-gradient-2);}</style><radialGradient id="radial-gradient" cx="102.36" cy="211.79" r="94.31" gradientTransform="translate(-56.43 -86.23) rotate(-14.07)" gradientUnits="userSpaceOnUse"><stop offset="0.88"/><stop offset="0.9" stop-color="#030303"/><stop offset="0.92" stop-color="#0d0d0d"/><stop offset="0.93" stop-color="#1e1e1e"/><stop offset="0.95" stop-color="#353535"/><stop offset="0.96" stop-color="#545454"/><stop offset="0.97" stop-color="#797979"/><stop offset="0.98" stop-color="#a6a6a6"/><stop offset="0.99" stop-color="#d8d8d8"/><stop offset="1" stop-color="#fff"/></radialGradient><radialGradient id="radial-gradient-2" cx="102.35" cy="230.12" r="85.63" xlink:href="#radial-gradient"/><radialGradient id="radial-gradient-3" cx="112.19" cy="178.35" r="73.62" xlink:href="#radial-gradient"/><radialGradient id="radial-gradient-4" cx="185.86" cy="81.62" r="13.8" gradientUnits="userSpaceOnUse"><stop offset="0" stop-color="#9a9a9a"/><stop offset="1"/></radialGradient><radialGradient id="radial-gradient-5" cx="85.18" cy="183.24" r="11.17" xlink:href="#radial-gradient-4"/><linearGradient id="linear-gradient" x1="-28.33" y1="146.45" x2="42.08" y2="146.45" gradientTransform="translate(59.95 -59.53) rotate(8.23)" gradientUnits="userSpaceOnUse"><stop offset="0" stop-color="#ababab"/><stop offset="0.08" stop-color="#999"/><stop offset="0.41" stop-color="#585858"/><stop offset="0.68" stop-color="#282828"/><stop offset="0.88" stop-color="#0b0b0b"/><stop offset="1"/></linearGradient><linearGradient id="linear-gradient-2" x1="190.04" y1="319.64" x2="226.43" y2="319.64" gradientTransform="translate(299.5 458.06) rotate(-169.2)" xlink:href="#linear-gradient"/></defs><title>Recurso4</title><g class="cls-1"><g id="Capa_2" data-name="Capa 2"><g id="Layer_2" data-name="Layer 2"><path class="cls-2" d="M102.65,72.25V63.32c0-4.36,2.9-5.37,4.94-5.37h12.53V38.8l-17.26-.07C83.7,38.73,79.34,53,79.34,62.15v10.1H68.26V94.6H79.43v55.87h22.35V94.6h16.59l.8-8.78,1.24-13.57Z"/><circle class="cls-3" cx="94.33" cy="94.33" r="94.31"/><path class="cls-4" d="M142.64,108.69A64.18,64.18,0,0,1,129,113.85c-17.75,5-37.27,7.61-55.84,4.77-32.2-5-54.57-32.34-65.19-62.07A94.31,94.31,0,1,0,186.23,73.14a119.49,119.49,0,0,1-21.64,22A90.67,90.67,0,0,1,142.64,108.69Z"/><path class="cls-5" d="M71.41,2.85A94.17,94.17,0,0,0,7.92,56.55c10.62,29.73,33,57.08,65.19,62.07,18.57,2.84,38.09.25,55.84-4.77a64.18,64.18,0,0,0,13.69-5.16,90.67,90.67,0,0,0,22-13.56,119.49,119.49,0,0,0,21.64-22c-.14-.57-.27-1.15-.41-1.73A94.32,94.32,0,0,0,71.41,2.85Z"/><g class="cls-6"><path class="cls-7" d="M182.25,62.56a108,108,0,0,1,5.48,38.34c0,1.06,1.61,1.06,1.65,0a109,109,0,0,0-5.54-38.77c-.34-1-1.93-.58-1.59.43Z"/></g><g class="cls-6"><path class="cls-8" d="M69.28,182.25A65.86,65.86,0,0,0,101,184.92c1-.17.6-1.76-.44-1.59a64.13,64.13,0,0,1-30.88-2.67c-1-.34-1.44,1.25-.44,1.59Z"/></g><path class="cls-9" d="M63.25,90c-5.31,36.72,26.24,70.6-5.13,66.07S5.64,118.07,11,81.35s35-62.81,66.4-58.27S68.56,53.26,63.25,90Z"/><path class="cls-10" d="M145.92,102.8c3.59-18.83-11.91-37.06,4.18-34s26.22,20.83,22.63,39.66S153.18,140.08,137.09,137,142.33,121.63,145.92,102.8Z"/></g></g></g></svg>