<svg xmlns="http://www.w3.org/2000/svg" viewBox="0 0 175.95 175.95"><defs><style>.cls-1{fill:#727270;fill-rule:evenodd;}</style></defs><title>Recurso 2</title><g id="Capa_2" data-name="Capa 2"><g id="_5" data-name="5"><path class="cls-1" d="M103.17,88.24c0-8.53-6.93-15.46-14.93-15.46A15.47,15.47,0,0,0,72.78,88.24c0,8,6.93,14.93,15.46,14.93a15.26,15.26,0,0,0,14.93-14.93Zm69.31-15.19h0l-21.06-3.74a49.18,49.18,0,0,0-5.59-12.79l12.52-18.13a4.11,4.11,0,0,0-.53-5.33L142.89,18.13a4.46,4.46,0,0,0-5.6-.53L119.43,30.12c-4-2.66-8.53-4-12.79-5.59L102.9,3.47A5.15,5.15,0,0,0,98.37,0H77.05a4.56,4.56,0,0,0-4.27,3.47l-4,21.59a49.83,49.83,0,0,0-12.26,5.06l-17.86-12c-1.6-1.6-4-1.07-5.6.53L18.13,33.59a4.11,4.11,0,0,0-.53,5.33l12,17.6a74.94,74.94,0,0,0-5.06,12.79L3.47,73.05C1.6,73.05,0,75.18,0,77.31v21.6a3.77,3.77,0,0,0,3.47,3.72l21.06,4.28a39.53,39.53,0,0,0,5.6,12.26l-12,17.59a3.87,3.87,0,0,0,.53,5.59l14.94,15.2c1.59,1.34,4,1.87,5.59.54l17.33-12a46.85,46.85,0,0,0,12.26,4.8l4,21.6A4.28,4.28,0,0,0,77.05,176H98.37a4.79,4.79,0,0,0,4.53-3.46l3.74-21.07c4.26-1.6,8.8-2.93,12.79-4.79L137,158.35a4.42,4.42,0,0,0,5.33-.26l14.93-15.2c1.6-1.6,2.13-4,.53-5.6l-12-18.12a39.74,39.74,0,0,0,5.59-12.26l21.06-4.28A3.77,3.77,0,0,0,176,98.91V77.31c0-2.13-1.6-4.26-3.47-4.26ZM88.24,124.76h0c-20.53,0-37-16.52-37-36.52A37,37,0,0,1,88.24,51.18c20,0,36.53,16.54,36.53,37.06a36.75,36.75,0,0,1-36.53,36.52Z"/></g></g></svg>