<svg xmlns="http://www.w3.org/2000/svg" xmlns:xlink="http://www.w3.org/1999/xlink" viewBox="0 0 189.46 188.67"><defs><style>.cls-1{isolation:isolate;}.cls-2{fill:#fff;}.cls-10,.cls-3,.cls-4,.cls-5{opacity:0.3;}.cls-10,.cls-3,.cls-4,.cls-5,.cls-6,.cls-9{mix-blend-mode:screen;}.cls-3{fill:url(#radial-gradient);}.cls-4{fill:url(#radial-gradient-2);}.cls-5{fill:url(#radial-gradient-3);}.cls-7{fill:url(#radial-gradient-4);}.cls-8{fill:url(#radial-gradient-5);}.cls-9{fill:url(#linear-gradient);}.cls-10{fill:url(#linear-gradient-2);}</style><radialGradient id="radial-gradient" cx="109.57" cy="153.34" r="94.31" gradientTransform="translate(-49.21 -27.78) rotate(-14.07)" gradientUnits="userSpaceOnUse"><stop offset="0.88"/><stop offset="0.9" stop-color="#030303"/><stop offset="0.92" stop-color="#0d0d0d"/><stop offset="0.93" stop-color="#1e1e1e"/><stop offset="0.95" stop-color="#353535"/><stop offset="0.96" stop-color="#545454"/><stop offset="0.97" stop-color="#797979"/><stop offset="0.98" stop-color="#a6a6a6"/><stop offset="0.99" stop-color="#d8d8d8"/><stop offset="1" stop-color="#fff"/></radialGradient><radialGradient id="radial-gradient-2" cx="109.56" cy="171.67" r="85.63" xlink:href="#radial-gradient"/><radialGradient id="radial-gradient-3" cx="119.41" cy="119.9" r="73.62" xlink:href="#radial-gradient"/><radialGradient id="radial-gradient-4" cx="185.86" cy="81.62" r="13.8" gradientUnits="userSpaceOnUse"><stop offset="0" stop-color="#9a9a9a"/><stop offset="1"/></radialGradient><radialGradient id="radial-gradient-5" cx="85.18" cy="183.24" r="11.17" xlink:href="#radial-gradient-4"/><linearGradient id="linear-gradient" x1="-25.86" y1="180.87" x2="44.56" y2="180.87" gradientTransform="translate(62.42 -93.95) rotate(8.23)" gradientUnits="userSpaceOnUse"><stop offset="0" stop-color="#ababab"/><stop offset="0.08" stop-color="#999"/><stop offset="0.41" stop-color="#585858"/><stop offset="0.68" stop-color="#282828"/><stop offset="0.88" stop-color="#0b0b0b"/><stop offset="1"/></linearGradient><linearGradient id="linear-gradient-2" x1="666.78" y1="274.57" x2="703.17" y2="274.57" gradientTransform="translate(776.24 503.13) rotate(-169.2)" xlink:href="#linear-gradient"/></defs><title>Recurso2</title><g class="cls-1"><g id="Capa_2" data-name="Capa 2"><g id="Layer_2" data-name="Layer 2"><path class="cls-2" d="M125.9,150H62.76c-13.07,0-23.71-10.4-23.71-23.18v-65c0-12.78,10.64-23.18,23.71-23.18H125.9c13.08,0,23.72,10.4,23.72,23.18v65C149.62,139.62,139,150,125.9,150ZM62.76,48.2c-7.81,0-14.17,6.11-14.17,13.63v65c0,7.52,6.36,13.63,14.17,13.63H125.9c7.81,0,14.17-6.11,14.17-13.63v-65c0-7.52-6.36-13.63-14.17-13.63Z"/><path class="cls-2" d="M94.33,123.24a28.91,28.91,0,1,1,28.91-28.91A28.94,28.94,0,0,1,94.33,123.24Zm0-48.26a19.36,19.36,0,1,0,19.36,19.35A19.37,19.37,0,0,0,94.33,75Z"/><path class="cls-2" d="M132.12,64a6.76,6.76,0,1,1-6.77-6.76A6.77,6.77,0,0,1,132.12,64Z"/><circle class="cls-3" cx="94.33" cy="94.33" r="94.31"/><path class="cls-4" d="M142.64,108.69A64.18,64.18,0,0,1,129,113.85c-17.75,5-37.27,7.61-55.84,4.77-32.2-5-54.57-32.34-65.19-62.07A94.31,94.31,0,1,0,186.23,73.14a119.49,119.49,0,0,1-21.64,22A90.67,90.67,0,0,1,142.64,108.69Z"/><path class="cls-5" d="M71.41,2.85A94.17,94.17,0,0,0,7.92,56.55c10.62,29.73,33,57.08,65.19,62.07,18.57,2.84,38.09.25,55.84-4.77a64.18,64.18,0,0,0,13.69-5.16,90.67,90.67,0,0,0,22-13.56,119.49,119.49,0,0,0,21.64-22c-.14-.57-.27-1.15-.41-1.73A94.32,94.32,0,0,0,71.41,2.85Z"/><g class="cls-6"><path class="cls-7" d="M182.25,62.56a108,108,0,0,1,5.48,38.34c0,1.06,1.61,1.06,1.65,0a109,109,0,0,0-5.54-38.77c-.34-1-1.93-.58-1.59.43Z"/></g><g class="cls-6"><path class="cls-8" d="M69.28,182.25A65.86,65.86,0,0,0,101,184.92c1-.17.6-1.76-.44-1.59a64.13,64.13,0,0,1-30.88-2.67c-1-.34-1.44,1.25-.44,1.59Z"/></g><path class="cls-9" d="M63.25,90c-5.31,36.72,26.24,70.6-5.13,66.07S5.64,118.07,11,81.35s35-62.81,66.4-58.27S68.56,53.26,63.25,90Z"/><path class="cls-10" d="M145.92,102.8c3.59-18.83-11.91-37.06,4.18-34s26.22,20.83,22.63,39.66S153.18,140.08,137.09,137,142.33,121.63,145.92,102.8Z"/></g></g></g></svg>